ISO-10303-21;
HEADER;
/* Generated by software containing ST-Developer
 * from STEP Tools, Inc. (www.steptools.com) 
 */

FILE_DESCRIPTION(
/* description */ ('CATIA V5 STEP Exchange'),
/* implementation_level */ '2;1');

FILE_NAME(
/* name */ 'Step Drehfrsteil.step',
/* time_stamp */ '2026-08-29T13:31:56+02:00',
/* author */ (''),
/* organization */ (''),
/* preprocessor_version */ 'ST-DEVELOPER v20.1',
/* originating_system */ 'Autodesk Translation Framework v15.8.0.0',
/* authorisation */ '');

FILE_SCHEMA (('AUTOMOTIVE_DESIGN { 1 0 10303 214 3 1 1 }'));
ENDSEC;

DATA;
#10=MECHANICAL_DESIGN_GEOMETRIC_PRESENTATION_REPRESENTATION('',(#13),#650);
#11=SHAPE_REPRESENTATION_RELATIONSHIP('SRR','None',#657,#12);
#12=ADVANCED_BREP_SHAPE_REPRESENTATION('',(#14),#649);
#13=STYLED_ITEM('',(#667),#14);
#14=MANIFOLD_SOLID_BREP('Body1',#353);
#15=CONICAL_SURFACE('',#407,1.,0.523598775598);
#16=LINE('',#560,#31);
#17=LINE('',#572,#32);
#18=LINE('',#579,#33);
#19=LINE('',#583,#34);
#20=LINE('',#596,#35);
#21=LINE('',#602,#36);
#22=LINE('',#603,#37);
#23=LINE('',#606,#38);
#24=LINE('',#607,#39);
#25=LINE('',#610,#40);
#26=LINE('',#613,#41);
#27=LINE('',#618,#42);
#28=LINE('',#626,#43);
#29=LINE('',#636,#44);
#30=LINE('',#639,#45);
#31=VECTOR('',#439,7.125);
#32=VECTOR('',#454,7.125);
#33=VECTOR('',#461,1.00000000000007);
#34=VECTOR('',#464,1.00000000000007);
#35=VECTOR('',#481,3.5);
#36=VECTOR('',#488,1.);
#37=VECTOR('',#489,1.);
#38=VECTOR('',#492,1.);
#39=VECTOR('',#493,1.00000000000047);
#40=VECTOR('',#496,1.);
#41=VECTOR('',#501,1.00000000000047);
#42=VECTOR('',#506,6.25);
#43=VECTOR('',#517,1.);
#44=VECTOR('',#530,4.75);
#45=VECTOR('',#533,5.8);
#46=CYLINDRICAL_SURFACE('',#374,7.);
#47=CYLINDRICAL_SURFACE('',#381,7.);
#48=CYLINDRICAL_SURFACE('',#393,3.5);
#49=CYLINDRICAL_SURFACE('',#395,11.);
#50=CYLINDRICAL_SURFACE('',#398,8.);
#51=CYLINDRICAL_SURFACE('',#401,6.25);
#52=CYLINDRICAL_SURFACE('',#412,3.);
#53=CYLINDRICAL_SURFACE('',#414,5.8);
#54=FACE_BOUND('',#94,.T.);
#55=FACE_BOUND('',#99,.T.);
#56=FACE_BOUND('',#100,.T.);
#57=FACE_BOUND('',#103,.T.);
#58=FACE_BOUND('',#111,.T.);
#59=FACE_BOUND('',#117,.T.);
#60=FACE_BOUND('',#120,.T.);
#61=FACE_BOUND('',#121,.T.);
#62=PLANE('',#372);
#63=PLANE('',#384);
#64=PLANE('',#391);
#65=PLANE('',#397);
#66=PLANE('',#400);
#67=PLANE('',#404);
#68=PLANE('',#417);
#69=PLANE('',#420);
#70=FACE_OUTER_BOUND('',#92,.T.);
#71=FACE_OUTER_BOUND('',#93,.T.);
#72=FACE_OUTER_BOUND('',#95,.T.);
#73=FACE_OUTER_BOUND('',#96,.T.);
#74=FACE_OUTER_BOUND('',#97,.T.);
#75=FACE_OUTER_BOUND('',#98,.T.);
#76=FACE_OUTER_BOUND('',#101,.T.);
#77=FACE_OUTER_BOUND('',#102,.T.);
#78=FACE_OUTER_BOUND('',#104,.T.);
#79=FACE_OUTER_BOUND('',#105,.T.);
#80=FACE_OUTER_BOUND('',#106,.T.);
#81=FACE_OUTER_BOUND('',#107,.T.);
#82=FACE_OUTER_BOUND('',#108,.T.);
#83=FACE_OUTER_BOUND('',#109,.T.);
#84=FACE_OUTER_BOUND('',#110,.T.);
#85=FACE_OUTER_BOUND('',#112,.T.);
#86=FACE_OUTER_BOUND('',#113,.T.);
#87=FACE_OUTER_BOUND('',#114,.T.);
#88=FACE_OUTER_BOUND('',#115,.T.);
#89=FACE_OUTER_BOUND('',#116,.T.);
#90=FACE_OUTER_BOUND('',#118,.T.);
#91=FACE_OUTER_BOUND('',#119,.T.);
#92=EDGE_LOOP('',(#232,#233,#234,#235,#236));
#93=EDGE_LOOP('',(#237));
#94=EDGE_LOOP('',(#238));
#95=EDGE_LOOP('',(#239,#240,#241,#242,#243));
#96=EDGE_LOOP('',(#244,#245,#246,#247,#248));
#97=EDGE_LOOP('',(#249,#250,#251,#252,#253,#254));
#98=EDGE_LOOP('',(#255,#256,#257,#258));
#99=EDGE_LOOP('',(#259));
#100=EDGE_LOOP('',(#260));
#101=EDGE_LOOP('',(#261,#262,#263,#264,#265));
#102=EDGE_LOOP('',(#266));
#103=EDGE_LOOP('',(#267));
#104=EDGE_LOOP('',(#268,#269,#270,#271));
#105=EDGE_LOOP('',(#272,#273,#274,#275));
#106=EDGE_LOOP('',(#276,#277,#278,#279));
#107=EDGE_LOOP('',(#280,#281,#282,#283));
#108=EDGE_LOOP('',(#284,#285,#286,#287));
#109=EDGE_LOOP('',(#288,#289,#290,#291));
#110=EDGE_LOOP('',(#292));
#111=EDGE_LOOP('',(#293));
#112=EDGE_LOOP('',(#294,#295,#296,#297));
#113=EDGE_LOOP('',(#298,#299,#300,#301,#302));
#114=EDGE_LOOP('',(#303,#304,#305,#306));
#115=EDGE_LOOP('',(#307,#308,#309,#310,#311,#312));
#116=EDGE_LOOP('',(#313));
#117=EDGE_LOOP('',(#314));
#118=EDGE_LOOP('',(#315,#316,#317,#318,#319));
#119=EDGE_LOOP('',(#320,#321,#322,#323));
#120=EDGE_LOOP('',(#324));
#121=EDGE_LOOP('',(#325));
#122=CIRCLE('',#368,7.);
#123=CIRCLE('',#369,0.2);
#124=CIRCLE('',#370,6.8);
#125=CIRCLE('',#371,7.);
#126=CIRCLE('',#373,6.20000000019);
#127=CIRCLE('',#375,7.);
#128=CIRCLE('',#377,7.4);
#129=CIRCLE('',#378,0.4);
#130=CIRCLE('',#379,7.);
#131=CIRCLE('',#380,7.);
#132=CIRCLE('',#382,7.);
#133=CIRCLE('',#383,7.);
#134=CIRCLE('',#385,7.99999999986);
#135=CIRCLE('',#386,10.9999999992);
#136=CIRCLE('',#387,3.5);
#137=CIRCLE('',#389,0.2);
#138=CIRCLE('',#390,6.8);
#139=CIRCLE('',#392,6.19999999925);
#140=CIRCLE('',#394,3.5);
#141=CIRCLE('',#396,11.);
#142=CIRCLE('',#399,8.);
#143=CIRCLE('',#402,6.25);
#144=CIRCLE('',#403,6.25);
#145=CIRCLE('',#405,6.83632486538416);
#146=CIRCLE('',#406,3.);
#147=CIRCLE('',#409,0.4);
#148=CIRCLE('',#410,5.8);
#149=CIRCLE('',#411,5.8);
#150=CIRCLE('',#413,3.);
#151=CIRCLE('',#415,5.8);
#152=CIRCLE('',#416,5.8);
#153=CIRCLE('',#419,0.4);
#154=VERTEX_POINT('',#548);
#155=VERTEX_POINT('',#549);
#156=VERTEX_POINT('',#551);
#157=VERTEX_POINT('',#556);
#158=VERTEX_POINT('',#559);
#159=VERTEX_POINT('',#563);
#160=VERTEX_POINT('',#565);
#161=VERTEX_POINT('',#567);
#162=VERTEX_POINT('',#571);
#163=VERTEX_POINT('',#573);
#164=VERTEX_POINT('',#577);
#165=VERTEX_POINT('',#578);
#166=VERTEX_POINT('',#580);
#167=VERTEX_POINT('',#582);
#168=VERTEX_POINT('',#585);
#169=VERTEX_POINT('',#588);
#170=VERTEX_POINT('',#592);
#171=VERTEX_POINT('',#595);
#172=VERTEX_POINT('',#599);
#173=VERTEX_POINT('',#600);
#174=VERTEX_POINT('',#605);
#175=VERTEX_POINT('',#609);
#176=VERTEX_POINT('',#615);
#177=VERTEX_POINT('',#617);
#178=VERTEX_POINT('',#621);
#179=VERTEX_POINT('',#623);
#180=VERTEX_POINT('',#628);
#181=VERTEX_POINT('',#630);
#182=VERTEX_POINT('',#634);
#183=VERTEX_POINT('',#638);
#184=VERTEX_POINT('',#640);
#185=EDGE_CURVE('',#154,#155,#122,.T.);
#186=EDGE_CURVE('',#155,#156,#123,.T.);
#187=EDGE_CURVE('',#156,#156,#124,.T.);
#188=EDGE_CURVE('',#155,#154,#125,.T.);
#189=EDGE_CURVE('',#157,#157,#126,.F.);
#190=EDGE_CURVE('',#154,#158,#16,.T.);
#191=EDGE_CURVE('',#158,#158,#127,.T.);
#192=EDGE_CURVE('',#159,#159,#128,.T.);
#193=EDGE_CURVE('',#159,#160,#129,.T.);
#194=EDGE_CURVE('',#160,#161,#130,.T.);
#195=EDGE_CURVE('',#161,#160,#131,.T.);
#196=EDGE_CURVE('',#161,#162,#17,.T.);
#197=EDGE_CURVE('',#163,#162,#132,.T.);
#198=EDGE_CURVE('',#162,#163,#133,.T.);
#199=EDGE_CURVE('',#164,#165,#18,.F.);
#200=EDGE_CURVE('',#166,#164,#134,.T.);
#201=EDGE_CURVE('',#167,#166,#19,.T.);
#202=EDGE_CURVE('',#165,#167,#135,.T.);
#203=EDGE_CURVE('',#168,#168,#136,.T.);
#204=EDGE_CURVE('',#163,#169,#137,.T.);
#205=EDGE_CURVE('',#169,#169,#138,.T.);
#206=EDGE_CURVE('',#170,#170,#139,.F.);
#207=EDGE_CURVE('',#168,#171,#20,.T.);
#208=EDGE_CURVE('',#171,#171,#140,.T.);
#209=EDGE_CURVE('',#172,#173,#141,.T.);
#210=EDGE_CURVE('',#165,#172,#21,.T.);
#211=EDGE_CURVE('',#167,#173,#22,.T.);
#212=EDGE_CURVE('',#166,#174,#23,.T.);
#213=EDGE_CURVE('',#173,#174,#24,.T.);
#214=EDGE_CURVE('',#164,#175,#25,.T.);
#215=EDGE_CURVE('',#174,#175,#142,.T.);
#216=EDGE_CURVE('',#175,#172,#26,.F.);
#217=EDGE_CURVE('',#176,#176,#143,.F.);
#218=EDGE_CURVE('',#176,#177,#27,.T.);
#219=EDGE_CURVE('',#177,#177,#144,.T.);
#220=EDGE_CURVE('',#178,#178,#145,.T.);
#221=EDGE_CURVE('',#179,#179,#146,.F.);
#222=EDGE_CURVE('',#158,#178,#28,.T.);
#223=EDGE_CURVE('',#157,#180,#147,.T.);
#224=EDGE_CURVE('',#181,#180,#148,.F.);
#225=EDGE_CURVE('',#180,#181,#149,.F.);
#226=EDGE_CURVE('',#182,#182,#150,.F.);
#227=EDGE_CURVE('',#182,#179,#29,.T.);
#228=EDGE_CURVE('',#181,#183,#30,.T.);
#229=EDGE_CURVE('',#184,#183,#151,.F.);
#230=EDGE_CURVE('',#183,#184,#152,.F.);
#231=EDGE_CURVE('',#184,#170,#153,.T.);
#232=ORIENTED_EDGE('',*,*,#185,.T.);
#233=ORIENTED_EDGE('',*,*,#186,.T.);
#234=ORIENTED_EDGE('',*,*,#187,.T.);
#235=ORIENTED_EDGE('',*,*,#186,.F.);
#236=ORIENTED_EDGE('',*,*,#188,.T.);
#237=ORIENTED_EDGE('',*,*,#187,.F.);
#238=ORIENTED_EDGE('',*,*,#189,.F.);
#239=ORIENTED_EDGE('',*,*,#185,.F.);
#240=ORIENTED_EDGE('',*,*,#190,.T.);
#241=ORIENTED_EDGE('',*,*,#191,.T.);
#242=ORIENTED_EDGE('',*,*,#190,.F.);
#243=ORIENTED_EDGE('',*,*,#188,.F.);
#244=ORIENTED_EDGE('',*,*,#192,.T.);
#245=ORIENTED_EDGE('',*,*,#193,.T.);
#246=ORIENTED_EDGE('',*,*,#194,.T.);
#247=ORIENTED_EDGE('',*,*,#195,.T.);
#248=ORIENTED_EDGE('',*,*,#193,.F.);
#249=ORIENTED_EDGE('',*,*,#195,.F.);
#250=ORIENTED_EDGE('',*,*,#196,.T.);
#251=ORIENTED_EDGE('',*,*,#197,.F.);
#252=ORIENTED_EDGE('',*,*,#198,.F.);
#253=ORIENTED_EDGE('',*,*,#196,.F.);
#254=ORIENTED_EDGE('',*,*,#194,.F.);
#255=ORIENTED_EDGE('',*,*,#199,.F.);
#256=ORIENTED_EDGE('',*,*,#200,.F.);
#257=ORIENTED_EDGE('',*,*,#201,.F.);
#258=ORIENTED_EDGE('',*,*,#202,.F.);
#259=ORIENTED_EDGE('',*,*,#203,.T.);
#260=ORIENTED_EDGE('',*,*,#192,.F.);
#261=ORIENTED_EDGE('',*,*,#198,.T.);
#262=ORIENTED_EDGE('',*,*,#204,.T.);
#263=ORIENTED_EDGE('',*,*,#205,.T.);
#264=ORIENTED_EDGE('',*,*,#204,.F.);
#265=ORIENTED_EDGE('',*,*,#197,.T.);
#266=ORIENTED_EDGE('',*,*,#205,.F.);
#267=ORIENTED_EDGE('',*,*,#206,.T.);
#268=ORIENTED_EDGE('',*,*,#203,.F.);
#269=ORIENTED_EDGE('',*,*,#207,.T.);
#270=ORIENTED_EDGE('',*,*,#208,.T.);
#271=ORIENTED_EDGE('',*,*,#207,.F.);
#272=ORIENTED_EDGE('',*,*,#209,.F.);
#273=ORIENTED_EDGE('',*,*,#210,.F.);
#274=ORIENTED_EDGE('',*,*,#202,.T.);
#275=ORIENTED_EDGE('',*,*,#211,.T.);
#276=ORIENTED_EDGE('',*,*,#211,.F.);
#277=ORIENTED_EDGE('',*,*,#201,.T.);
#278=ORIENTED_EDGE('',*,*,#212,.T.);
#279=ORIENTED_EDGE('',*,*,#213,.F.);
#280=ORIENTED_EDGE('',*,*,#212,.F.);
#281=ORIENTED_EDGE('',*,*,#200,.T.);
#282=ORIENTED_EDGE('',*,*,#214,.T.);
#283=ORIENTED_EDGE('',*,*,#215,.F.);
#284=ORIENTED_EDGE('',*,*,#214,.F.);
#285=ORIENTED_EDGE('',*,*,#199,.T.);
#286=ORIENTED_EDGE('',*,*,#210,.T.);
#287=ORIENTED_EDGE('',*,*,#216,.F.);
#288=ORIENTED_EDGE('',*,*,#217,.T.);
#289=ORIENTED_EDGE('',*,*,#218,.T.);
#290=ORIENTED_EDGE('',*,*,#219,.T.);
#291=ORIENTED_EDGE('',*,*,#218,.F.);
#292=ORIENTED_EDGE('',*,*,#220,.F.);
#293=ORIENTED_EDGE('',*,*,#221,.T.);
#294=ORIENTED_EDGE('',*,*,#191,.F.);
#295=ORIENTED_EDGE('',*,*,#222,.T.);
#296=ORIENTED_EDGE('',*,*,#220,.T.);
#297=ORIENTED_EDGE('',*,*,#222,.F.);
#298=ORIENTED_EDGE('',*,*,#189,.T.);
#299=ORIENTED_EDGE('',*,*,#223,.T.);
#300=ORIENTED_EDGE('',*,*,#224,.F.);
#301=ORIENTED_EDGE('',*,*,#225,.F.);
#302=ORIENTED_EDGE('',*,*,#223,.F.);
#303=ORIENTED_EDGE('',*,*,#226,.F.);
#304=ORIENTED_EDGE('',*,*,#227,.T.);
#305=ORIENTED_EDGE('',*,*,#221,.F.);
#306=ORIENTED_EDGE('',*,*,#227,.F.);
#307=ORIENTED_EDGE('',*,*,#225,.T.);
#308=ORIENTED_EDGE('',*,*,#228,.T.);
#309=ORIENTED_EDGE('',*,*,#229,.F.);
#310=ORIENTED_EDGE('',*,*,#230,.F.);
#311=ORIENTED_EDGE('',*,*,#228,.F.);
#312=ORIENTED_EDGE('',*,*,#224,.T.);
#313=ORIENTED_EDGE('',*,*,#219,.F.);
#314=ORIENTED_EDGE('',*,*,#226,.T.);
#315=ORIENTED_EDGE('',*,*,#229,.T.);
#316=ORIENTED_EDGE('',*,*,#230,.T.);
#317=ORIENTED_EDGE('',*,*,#231,.T.);
#318=ORIENTED_EDGE('',*,*,#206,.F.);
#319=ORIENTED_EDGE('',*,*,#231,.F.);
#320=ORIENTED_EDGE('',*,*,#209,.T.);
#321=ORIENTED_EDGE('',*,*,#213,.T.);
#322=ORIENTED_EDGE('',*,*,#215,.T.);
#323=ORIENTED_EDGE('',*,*,#216,.T.);
#324=ORIENTED_EDGE('',*,*,#208,.F.);
#325=ORIENTED_EDGE('',*,*,#217,.F.);
#326=TOROIDAL_SURFACE('',#367,6.8,0.2);
#327=TOROIDAL_SURFACE('',#376,7.4,0.4);
#328=TOROIDAL_SURFACE('',#388,6.8,0.2);
#329=TOROIDAL_SURFACE('',#408,6.2,0.4);
#330=TOROIDAL_SURFACE('',#418,6.2,0.4);
#331=ADVANCED_FACE('',(#70),#326,.T.);
#332=ADVANCED_FACE('',(#71,#54),#62,.F.);
#333=ADVANCED_FACE('',(#72),#46,.T.);
#334=ADVANCED_FACE('',(#73),#327,.F.);
#335=ADVANCED_FACE('',(#74),#47,.T.);
#336=ADVANCED_FACE('',(#75,#55,#56),#63,.F.);
#337=ADVANCED_FACE('',(#76),#328,.T.);
#338=ADVANCED_FACE('',(#77,#57),#64,.T.);
#339=ADVANCED_FACE('',(#78),#48,.F.);
#340=ADVANCED_FACE('',(#79),#49,.T.);
#341=ADVANCED_FACE('',(#80),#65,.T.);
#342=ADVANCED_FACE('',(#81),#50,.T.);
#343=ADVANCED_FACE('',(#82),#66,.F.);
#344=ADVANCED_FACE('',(#83),#51,.F.);
#345=ADVANCED_FACE('',(#84,#58),#67,.F.);
#346=ADVANCED_FACE('',(#85),#15,.T.);
#347=ADVANCED_FACE('',(#86),#329,.F.);
#348=ADVANCED_FACE('',(#87),#52,.F.);
#349=ADVANCED_FACE('',(#88),#53,.T.);
#350=ADVANCED_FACE('',(#89,#59),#68,.F.);
#351=ADVANCED_FACE('',(#90),#330,.F.);
#352=ADVANCED_FACE('',(#91,#60,#61),#69,.T.);
#353=CLOSED_SHELL('',(#331,#332,#333,#334,#335,#336,#337,#338,#339,#340,
#341,#342,#343,#344,#345,#346,#347,#348,#349,#350,#351,#352));
#354=DERIVED_UNIT_ELEMENT(#356,1.);
#355=DERIVED_UNIT_ELEMENT(#652,-3.);
#356=(
MASS_UNIT()
NAMED_UNIT(*)
SI_UNIT(.KILO.,.GRAM.)
);
#357=DERIVED_UNIT((#354,#355));
#358=MEASURE_REPRESENTATION_ITEM('density measure',
POSITIVE_RATIO_MEASURE(7850.),#357);
#359=PROPERTY_DEFINITION_REPRESENTATION(#364,#361);
#360=PROPERTY_DEFINITION_REPRESENTATION(#365,#362);
#361=REPRESENTATION('material name',(#363),#649);
#362=REPRESENTATION('density',(#358),#649);
#363=DESCRIPTIVE_REPRESENTATION_ITEM('Steel','Steel');
#364=PROPERTY_DEFINITION('material property','material name',#659);
#365=PROPERTY_DEFINITION('material property','density of part',#659);
#366=AXIS2_PLACEMENT_3D('',#546,#421,#422);
#367=AXIS2_PLACEMENT_3D('',#547,#423,#424);
#368=AXIS2_PLACEMENT_3D('',#550,#425,#426);
#369=AXIS2_PLACEMENT_3D('',#552,#427,#428);
#370=AXIS2_PLACEMENT_3D('',#553,#429,#430);
#371=AXIS2_PLACEMENT_3D('',#554,#431,#432);
#372=AXIS2_PLACEMENT_3D('',#555,#433,#434);
#373=AXIS2_PLACEMENT_3D('',#557,#435,#436);
#374=AXIS2_PLACEMENT_3D('',#558,#437,#438);
#375=AXIS2_PLACEMENT_3D('',#561,#440,#441);
#376=AXIS2_PLACEMENT_3D('',#562,#442,#443);
#377=AXIS2_PLACEMENT_3D('',#564,#444,#445);
#378=AXIS2_PLACEMENT_3D('',#566,#446,#447);
#379=AXIS2_PLACEMENT_3D('',#568,#448,#449);
#380=AXIS2_PLACEMENT_3D('',#569,#450,#451);
#381=AXIS2_PLACEMENT_3D('',#570,#452,#453);
#382=AXIS2_PLACEMENT_3D('',#574,#455,#456);
#383=AXIS2_PLACEMENT_3D('',#575,#457,#458);
#384=AXIS2_PLACEMENT_3D('',#576,#459,#460);
#385=AXIS2_PLACEMENT_3D('',#581,#462,#463);
#386=AXIS2_PLACEMENT_3D('',#584,#465,#466);
#387=AXIS2_PLACEMENT_3D('',#586,#467,#468);
#388=AXIS2_PLACEMENT_3D('',#587,#469,#470);
#389=AXIS2_PLACEMENT_3D('',#589,#471,#472);
#390=AXIS2_PLACEMENT_3D('',#590,#473,#474);
#391=AXIS2_PLACEMENT_3D('',#591,#475,#476);
#392=AXIS2_PLACEMENT_3D('',#593,#477,#478);
#393=AXIS2_PLACEMENT_3D('',#594,#479,#480);
#394=AXIS2_PLACEMENT_3D('',#597,#482,#483);
#395=AXIS2_PLACEMENT_3D('',#598,#484,#485);
#396=AXIS2_PLACEMENT_3D('',#601,#486,#487);
#397=AXIS2_PLACEMENT_3D('',#604,#490,#491);
#398=AXIS2_PLACEMENT_3D('',#608,#494,#495);
#399=AXIS2_PLACEMENT_3D('',#611,#497,#498);
#400=AXIS2_PLACEMENT_3D('',#612,#499,#500);
#401=AXIS2_PLACEMENT_3D('',#614,#502,#503);
#402=AXIS2_PLACEMENT_3D('',#616,#504,#505);
#403=AXIS2_PLACEMENT_3D('',#619,#507,#508);
#404=AXIS2_PLACEMENT_3D('',#620,#509,#510);
#405=AXIS2_PLACEMENT_3D('',#622,#511,#512);
#406=AXIS2_PLACEMENT_3D('',#624,#513,#514);
#407=AXIS2_PLACEMENT_3D('',#625,#515,#516);
#408=AXIS2_PLACEMENT_3D('',#627,#518,#519);
#409=AXIS2_PLACEMENT_3D('',#629,#520,#521);
#410=AXIS2_PLACEMENT_3D('',#631,#522,#523);
#411=AXIS2_PLACEMENT_3D('',#632,#524,#525);
#412=AXIS2_PLACEMENT_3D('',#633,#526,#527);
#413=AXIS2_PLACEMENT_3D('',#635,#528,#529);
#414=AXIS2_PLACEMENT_3D('',#637,#531,#532);
#415=AXIS2_PLACEMENT_3D('',#641,#534,#535);
#416=AXIS2_PLACEMENT_3D('',#642,#536,#537);
#417=AXIS2_PLACEMENT_3D('',#643,#538,#539);
#418=AXIS2_PLACEMENT_3D('',#644,#540,#541);
#419=AXIS2_PLACEMENT_3D('',#645,#542,#543);
#420=AXIS2_PLACEMENT_3D('',#646,#544,#545);
#421=DIRECTION('axis',(0.,0.,1.));
#422=DIRECTION('refdir',(1.,0.,0.));
#423=DIRECTION('center_axis',(0.,1.,0.));
#424=DIRECTION('ref_axis',(0.,0.,1.));
#425=DIRECTION('center_axis',(0.,-1.,0.));
#426=DIRECTION('ref_axis',(1.,0.,-7.43555841064E-16));
#427=DIRECTION('center_axis',(-1.,0.,1.22464679914735E-16));
#428=DIRECTION('ref_axis',(-1.22464679914735E-16,0.,-1.));
#429=DIRECTION('center_axis',(0.,1.,0.));
#430=DIRECTION('ref_axis',(1.,0.,-7.43555841064E-16));
#431=DIRECTION('center_axis',(0.,-1.,0.));
#432=DIRECTION('ref_axis',(1.,0.,-7.43555841064E-16));
#433=DIRECTION('center_axis',(0.,1.,0.));
#434=DIRECTION('ref_axis',(1.,0.,0.));
#435=DIRECTION('center_axis',(0.,1.,0.));
#436=DIRECTION('ref_axis',(0.,0.,-1.));
#437=DIRECTION('center_axis',(0.,-1.,0.));
#438=DIRECTION('ref_axis',(1.,0.,-7.43555841064E-16));
#439=DIRECTION('',(0.,1.,0.));
#440=DIRECTION('center_axis',(0.,-1.,0.));
#441=DIRECTION('ref_axis',(1.,0.,-7.43555841064E-16));
#442=DIRECTION('center_axis',(0.,1.,0.));
#443=DIRECTION('ref_axis',(0.,0.,1.));
#444=DIRECTION('center_axis',(0.,1.,0.));
#445=DIRECTION('ref_axis',(1.,0.,-7.43555841064E-16));
#446=DIRECTION('center_axis',(-1.,0.,1.22464679914735E-16));
#447=DIRECTION('ref_axis',(-1.22464679914735E-16,0.,-1.));
#448=DIRECTION('center_axis',(0.,-1.,0.));
#449=DIRECTION('ref_axis',(1.,0.,-7.43555841064E-16));
#450=DIRECTION('center_axis',(0.,-1.,0.));
#451=DIRECTION('ref_axis',(1.,0.,-7.43555841064E-16));
#452=DIRECTION('center_axis',(0.,-1.,0.));
#453=DIRECTION('ref_axis',(1.,0.,-7.43555841064E-16));
#454=DIRECTION('',(0.,1.,0.));
#455=DIRECTION('center_axis',(0.,1.,0.));
#456=DIRECTION('ref_axis',(1.,0.,-7.43555841064E-16));
#457=DIRECTION('center_axis',(0.,1.,0.));
#458=DIRECTION('ref_axis',(1.,0.,-7.43555841064E-16));
#459=DIRECTION('center_axis',(0.,-1.,0.));
#460=DIRECTION('ref_axis',(1.,0.,0.));
#461=DIRECTION('',(-0.157894736801988,0.,-0.987455949442926));
#462=DIRECTION('center_axis',(0.,-1.,0.));
#463=DIRECTION('ref_axis',(0.,0.,1.));
#464=DIRECTION('',(0.157894736801988,0.,-0.987455949442926));
#465=DIRECTION('center_axis',(0.,-1.,0.));
#466=DIRECTION('ref_axis',(0.,0.,1.));
#467=DIRECTION('center_axis',(0.,-1.,0.));
#468=DIRECTION('ref_axis',(0.,0.,1.));
#469=DIRECTION('center_axis',(0.,-1.,0.));
#470=DIRECTION('ref_axis',(0.,0.,-1.));
#471=DIRECTION('center_axis',(-1.,0.,-1.22464679914735E-16));
#472=DIRECTION('ref_axis',(-1.22464679914735E-16,0.,1.));
#473=DIRECTION('center_axis',(0.,-1.,0.));
#474=DIRECTION('ref_axis',(1.,0.,-7.43555841064E-16));
#475=DIRECTION('center_axis',(0.,1.,0.));
#476=DIRECTION('ref_axis',(1.,0.,0.));
#477=DIRECTION('center_axis',(0.,1.,0.));
#478=DIRECTION('ref_axis',(0.,0.,-1.));
#479=DIRECTION('center_axis',(0.,-1.,0.));
#480=DIRECTION('ref_axis',(6.12323399574E-17,0.,1.));
#481=DIRECTION('',(0.,-1.,0.));
#482=DIRECTION('center_axis',(0.,-1.,0.));
#483=DIRECTION('ref_axis',(0.,0.,1.));
#484=DIRECTION('center_axis',(0.,-1.,0.));
#485=DIRECTION('ref_axis',(1.00929365875014E-16,0.,1.));
#486=DIRECTION('center_axis',(0.,-1.,0.));
#487=DIRECTION('ref_axis',(0.,0.,1.));
#488=DIRECTION('',(0.,-1.,0.));
#489=DIRECTION('',(0.,-1.,0.));
#490=DIRECTION('center_axis',(-0.98745594943654,0.,-0.157894736841926));
#491=DIRECTION('ref_axis',(0.157894736841926,0.,-0.98745594943654));
#492=DIRECTION('',(0.,-1.,0.));
#493=DIRECTION('',(0.157894736841926,0.,-0.98745594943654));
#494=DIRECTION('center_axis',(0.,-1.,0.));
#495=DIRECTION('ref_axis',(-0.98745594943654,0.,-0.157894736841926));
#496=DIRECTION('',(0.,-1.,0.));
#497=DIRECTION('center_axis',(0.,-1.,0.));
#498=DIRECTION('ref_axis',(0.,0.,1.));
#499=DIRECTION('center_axis',(-0.98745594943654,0.,0.157894736841926));
#500=DIRECTION('ref_axis',(-0.157894736841926,0.,-0.98745594943654));
#501=DIRECTION('',(-0.157894736841926,0.,-0.98745594943654));
#502=DIRECTION('center_axis',(0.,1.,0.));
#503=DIRECTION('ref_axis',(1.,0.,0.));
#504=DIRECTION('center_axis',(0.,1.,0.));
#505=DIRECTION('ref_axis',(0.,0.,-1.));
#506=DIRECTION('',(0.,1.,0.));
#507=DIRECTION('center_axis',(0.,1.,0.));
#508=DIRECTION('ref_axis',(0.,0.,-1.));
#509=DIRECTION('center_axis',(0.,-1.,0.));
#510=DIRECTION('ref_axis',(1.,0.,0.));
#511=DIRECTION('center_axis',(0.,-1.,0.));
#512=DIRECTION('ref_axis',(1.,5.92118946467E-16,-4.42376850309E-16));
#513=DIRECTION('center_axis',(0.,1.,0.));
#514=DIRECTION('ref_axis',(1.,0.,3.73969860926E-16));
#515=DIRECTION('center_axis',(5.92118946467E-16,-1.,5.92118946467E-16));
#516=DIRECTION('ref_axis',(1.,5.92118946467E-16,-4.42376850309E-16));
#517=DIRECTION('',(0.499999999999741,0.866025403784588,-6.72746134899638E-16));
#518=DIRECTION('center_axis',(0.,1.,0.));
#519=DIRECTION('ref_axis',(-1.00278208676E-15,0.,-1.));
#520=DIRECTION('center_axis',(-1.,0.,1.12524676667474E-15));
#521=DIRECTION('ref_axis',(1.12524676667474E-15,0.,1.));
#522=DIRECTION('center_axis',(0.,1.,0.));
#523=DIRECTION('ref_axis',(0.,0.,-1.));
#524=DIRECTION('center_axis',(0.,1.,0.));
#525=DIRECTION('ref_axis',(0.,0.,-1.));
#526=DIRECTION('center_axis',(0.,1.,0.));
#527=DIRECTION('ref_axis',(1.,0.,3.73969860926E-16));
#528=DIRECTION('center_axis',(0.,-1.,0.));
#529=DIRECTION('ref_axis',(1.,0.,3.73969860926E-16));
#530=DIRECTION('',(0.,1.,0.));
#531=DIRECTION('center_axis',(0.,1.,0.));
#532=DIRECTION('ref_axis',(-7.96233861045E-16,0.,1.));
#533=DIRECTION('',(0.,-1.,0.));
#534=DIRECTION('center_axis',(0.,1.,0.));
#535=DIRECTION('ref_axis',(0.,0.,-1.));
#536=DIRECTION('center_axis',(0.,1.,0.));
#537=DIRECTION('ref_axis',(0.,0.,-1.));
#538=DIRECTION('center_axis',(0.,1.,0.));
#539=DIRECTION('ref_axis',(1.,0.,0.));
#540=DIRECTION('center_axis',(0.,1.,0.));
#541=DIRECTION('ref_axis',(-1.07193947205E-15,0.,-1.));
#542=DIRECTION('center_axis',(-1.,0.,1.19440415196474E-15));
#543=DIRECTION('ref_axis',(1.19440415196474E-15,0.,1.));
#544=DIRECTION('center_axis',(0.,-1.,0.));
#545=DIRECTION('ref_axis',(1.,0.,0.));
#546=CARTESIAN_POINT('',(0.,0.,0.));
#547=CARTESIAN_POINT('Origin',(0.,8.5,0.));
#548=CARTESIAN_POINT('',(-7.,8.5,4.34763812804485E-15));
#549=CARTESIAN_POINT('',(-8.57252759403147E-16,8.5,-7.));
#550=CARTESIAN_POINT('Origin',(0.,8.5,0.));
#551=CARTESIAN_POINT('',(-8.327598234202E-16,8.3,-6.8));
#552=CARTESIAN_POINT('Origin',(-8.327598234202E-16,8.5,-6.8));
#553=CARTESIAN_POINT('Origin',(0.,8.3,0.));
#554=CARTESIAN_POINT('Origin',(0.,8.5,0.));
#555=CARTESIAN_POINT('Origin',(0.,8.3,5.8));
#556=CARTESIAN_POINT('',(-8.881784197E-16,8.3,6.2));
#557=CARTESIAN_POINT('Origin',(9.31321242348E-10,8.3,1.86262560931E-10));
#558=CARTESIAN_POINT('Origin',(0.,6.3,0.));
#559=CARTESIAN_POINT('',(-7.,11.3165063509095,4.34763812804485E-15));
#560=CARTESIAN_POINT('',(-7.,6.3,4.34763812804485E-15));
#561=CARTESIAN_POINT('Origin',(0.,11.3165063509095,0.));
#562=CARTESIAN_POINT('Origin',(0.,0.4,0.));
#563=CARTESIAN_POINT('',(-9.06238631369041E-16,0.,-7.4));
#564=CARTESIAN_POINT('Origin',(0.,0.,0.));
#565=CARTESIAN_POINT('',(-8.57252759403147E-16,0.4,-7.));
#566=CARTESIAN_POINT('Origin',(-9.06238631369041E-16,0.4,-7.4));
#567=CARTESIAN_POINT('',(-7.,0.4,4.34763812804485E-15));
#568=CARTESIAN_POINT('Origin',(0.,0.4,0.));
#569=CARTESIAN_POINT('Origin',(0.,0.4,0.));
#570=CARTESIAN_POINT('Origin',(0.,6.3,0.));
#571=CARTESIAN_POINT('',(-7.,5.6,6.06214364685115E-15));
#572=CARTESIAN_POINT('',(-7.,6.3,4.34763812804485E-15));
#573=CARTESIAN_POINT('',(-8.57252759403147E-16,5.6,7.));
#574=CARTESIAN_POINT('Origin',(0.,5.6,0.));
#575=CARTESIAN_POINT('Origin',(0.,5.6,0.));
#576=CARTESIAN_POINT('Origin',(0.,0.,0.));
#577=CARTESIAN_POINT('',(7.8996475955,8.881784197E-16,-20.2631578947));
#578=CARTESIAN_POINT('',(10.8620154438,8.881784197E-16,-1.73684210526));
#579=CARTESIAN_POINT('',(9.38083151914,0.,-11.));
#580=CARTESIAN_POINT('',(-7.89964759536,0.,-20.2631578956));
#581=CARTESIAN_POINT('Origin',(2.22044604925E-15,0.,-19.0000000001));
#582=CARTESIAN_POINT('',(-10.8620154438,0.,-1.73684210526));
#583=CARTESIAN_POINT('',(-9.38083151914,0.,-11.));
#584=CARTESIAN_POINT('Origin',(2.6645352591E-15,0.,7.62912399921E-10));
#585=CARTESIAN_POINT('',(2.14313189850674E-16,0.,-22.5));
#586=CARTESIAN_POINT('Origin',(0.,0.,-19.));
#587=CARTESIAN_POINT('Origin',(0.,5.6,0.));
#588=CARTESIAN_POINT('',(-8.327598234202E-16,5.8,6.8));
#589=CARTESIAN_POINT('Origin',(-8.327598234202E-16,5.6,6.8));
#590=CARTESIAN_POINT('Origin',(0.,5.8,0.));
#591=CARTESIAN_POINT('Origin',(0.,5.8,8.57629394531));
#592=CARTESIAN_POINT('',(-1.4587783144E-15,5.8,6.2));
#593=CARTESIAN_POINT('Origin',(1.33226762955E-15,5.8,-2.4975577162E-12));
#594=CARTESIAN_POINT('Origin',(0.,0.,-19.));
#595=CARTESIAN_POINT('',(2.14313189850674E-16,-7.,-22.5));
#596=CARTESIAN_POINT('',(2.14313189850674E-16,0.,-22.5));
#597=CARTESIAN_POINT('Origin',(0.,-7.,-19.));
#598=CARTESIAN_POINT('Origin',(0.,-3.5,0.));
#599=CARTESIAN_POINT('',(10.8620154429,-7.,-1.73684210517));
#600=CARTESIAN_POINT('',(-10.8620154429,-7.,-1.73684210517));
#601=CARTESIAN_POINT('Origin',(0.,-7.,0.));
#602=CARTESIAN_POINT('',(10.8620154438,-3.5,-1.73684210526));
#603=CARTESIAN_POINT('',(-10.8620154438,-3.5,-1.73684210526));
#604=CARTESIAN_POINT('Origin',(-10.8620154438,0.,-1.73684210526));
#605=CARTESIAN_POINT('',(-7.89964759536,-7.,-20.2631578948));
#606=CARTESIAN_POINT('',(-7.89964759536,-3.5,-20.2631578956));
#607=CARTESIAN_POINT('',(-9.38083151958,-7.,-11.0000000004));
#608=CARTESIAN_POINT('Origin',(0.,-3.5,-19.));
#609=CARTESIAN_POINT('',(7.89964759536,-7.,-20.2631578948));
#610=CARTESIAN_POINT('',(7.8996475955,-3.5,-20.2631578947));
#611=CARTESIAN_POINT('Origin',(0.,-7.,-19.));
#612=CARTESIAN_POINT('Origin',(10.8620154438,0.,-1.73684210526));
#613=CARTESIAN_POINT('',(9.38083151958,-7.,-11.0000000004));
#614=CARTESIAN_POINT('Origin',(0.,-7.,0.));
#615=CARTESIAN_POINT('',(-6.25,-7.,-5.66863380083E-16));
#616=CARTESIAN_POINT('Origin',(0.,-7.,0.));
#617=CARTESIAN_POINT('',(-6.25,-3.,5.66863380083E-16));
#618=CARTESIAN_POINT('',(-6.25,-7.,7.65404249467096E-16));
#619=CARTESIAN_POINT('Origin',(0.,-3.,0.));
#620=CARTESIAN_POINT('Origin',(0.,11.6,0.));
#621=CARTESIAN_POINT('',(-6.83632486538416,11.6,2.33505326180573E-15));
#622=CARTESIAN_POINT('Origin',(-1.1842378929496E-15,11.6,1.480297366004E-16));
#623=CARTESIAN_POINT('',(-3.,11.6,-7.54515543033794E-16));
#624=CARTESIAN_POINT('Origin',(0.,11.6,0.));
#625=CARTESIAN_POINT('Origin',(-7.16985652855429E-15,21.7088111963299,-5.83758889900429E-15));
#626=CARTESIAN_POINT('',(-1.00000000000001,21.7088111963299,-5.51767672861003E-15));
#627=CARTESIAN_POINT('Origin',(-8.881784197E-16,7.9,0.));
#628=CARTESIAN_POINT('',(-1.06544271526E-15,7.9,5.8));
#629=CARTESIAN_POINT('Origin',(6.08835153368336E-15,7.9,6.2));
#630=CARTESIAN_POINT('',(3.90786125055554E-15,7.9,-5.8));
#631=CARTESIAN_POINT('Origin',(-8.881784197E-16,7.9,0.));
#632=CARTESIAN_POINT('Origin',(-8.881784197E-16,7.9,0.));
#633=CARTESIAN_POINT('Origin',(0.,-7.,0.));
#634=CARTESIAN_POINT('',(-3.,-3.,-1.48930362252221E-15));
#635=CARTESIAN_POINT('Origin',(0.,-3.,0.));
#636=CARTESIAN_POINT('',(-3.,-7.,-7.54515543033794E-16));
#637=CARTESIAN_POINT('Origin',(0.,7.05,0.));
#638=CARTESIAN_POINT('',(3.90786125055554E-15,6.20000000037,-5.8));
#639=CARTESIAN_POINT('',(3.90786125055554E-15,7.05,-5.8));
#640=CARTESIAN_POINT('',(-4.4408920985E-16,6.2,5.8));
#641=CARTESIAN_POINT('Origin',(0.,6.20000000037,0.));
#642=CARTESIAN_POINT('Origin',(0.,6.20000000037,0.));
#643=CARTESIAN_POINT('Origin',(4.75,-3.,0.));
#644=CARTESIAN_POINT('Origin',(-8.881784197E-16,6.2,0.));
#645=CARTESIAN_POINT('Origin',(6.51712732248136E-15,6.2,6.2));
#646=CARTESIAN_POINT('Origin',(0.,-7.,0.));
#647=UNCERTAINTY_MEASURE_WITH_UNIT(LENGTH_MEASURE(0.01),#651,
'DISTANCE_ACCURACY_VALUE',
'Maximum model space distance between geometric entities at asserted c
onnectivities');
#648=UNCERTAINTY_MEASURE_WITH_UNIT(LENGTH_MEASURE(0.01),#651,
'DISTANCE_ACCURACY_VALUE',
'Maximum model space distance between geometric entities at asserted c
onnectivities');
#649=(
GEOMETRIC_REPRESENTATION_CONTEXT(3)
GLOBAL_UNCERTAINTY_ASSIGNED_CONTEXT((#647))
GLOBAL_UNIT_ASSIGNED_CONTEXT((#651,#653,#654))
REPRESENTATION_CONTEXT('','3D')
);
#650=(
GEOMETRIC_REPRESENTATION_CONTEXT(3)
GLOBAL_UNCERTAINTY_ASSIGNED_CONTEXT((#648))
GLOBAL_UNIT_ASSIGNED_CONTEXT((#651,#653,#654))
REPRESENTATION_CONTEXT('','3D')
);
#651=(
LENGTH_UNIT()
NAMED_UNIT(*)
SI_UNIT(.MILLI.,.METRE.)
);
#652=(
LENGTH_UNIT()
NAMED_UNIT(*)
SI_UNIT($,.METRE.)
);
#653=(
NAMED_UNIT(*)
PLANE_ANGLE_UNIT()
SI_UNIT($,.RADIAN.)
);
#654=(
NAMED_UNIT(*)
SI_UNIT($,.STERADIAN.)
SOLID_ANGLE_UNIT()
);
#655=SHAPE_DEFINITION_REPRESENTATION(#656,#657);
#656=PRODUCT_DEFINITION_SHAPE('',$,#659);
#657=SHAPE_REPRESENTATION('',(#366),#649);
#658=PRODUCT_DEFINITION_CONTEXT('part definition',#663,'design');
#659=PRODUCT_DEFINITION('69.61975-5046_01__O-Ringtraeger','(Unsaved)',#660,
#658);
#660=PRODUCT_DEFINITION_FORMATION('',$,#665);
#661=PRODUCT_RELATED_PRODUCT_CATEGORY('(Unsaved)','(Unsaved)',(#665));
#662=APPLICATION_PROTOCOL_DEFINITION('international standard',
'automotive_design',2009,#663);
#663=APPLICATION_CONTEXT(
'Core Data for Automotive Mechanical Design Process');
#664=PRODUCT_CONTEXT('part definition',#663,'mechanical');
#665=PRODUCT('69.61975-5046_01__O-Ringtraeger','(Unsaved)',
'CATIA V5 STEP Exchange',(#664));
#666=PRESENTATION_STYLE_ASSIGNMENT((#668));
#667=PRESENTATION_STYLE_ASSIGNMENT((#669));
#668=SURFACE_STYLE_USAGE(.BOTH.,#670);
#669=SURFACE_STYLE_USAGE(.BOTH.,#671);
#670=SURFACE_SIDE_STYLE('',(#672));
#671=SURFACE_SIDE_STYLE('',(#673));
#672=SURFACE_STYLE_FILL_AREA(#674);
#673=SURFACE_STYLE_FILL_AREA(#675);
#674=FILL_AREA_STYLE('Steel - Satin',(#676));
#675=FILL_AREA_STYLE('Opaque(210,210,255)',(#677));
#676=FILL_AREA_STYLE_COLOUR('Steel - Satin',#678);
#677=FILL_AREA_STYLE_COLOUR('Opaque(210,210,255)',#679);
#678=COLOUR_RGB('Steel - Satin',0.627450980392157,0.627450980392157,0.627450980392157);
#679=COLOUR_RGB('Opaque(210,210,255)',0.823529411764706,0.823529411764706,
1.);
ENDSEC;
END-ISO-10303-21;
